<?xml version="1.0" encoding="UTF-8"?><svg id="_레이어_2" xmlns="http://www.w3.org/2000/svg" viewBox="0 0 263.01 270.89"><defs><style>.cls-1{fill:#8f6ef4;stroke-width:0px;}</style></defs><g id="_레이어_1-2"><path class="cls-1" d="m263.01,87.67C263.01,39.25,223.76,0,175.34,0c-15.97,0-30.94,4.27-43.84,11.73C118.61,4.27,103.64,0,87.67,0,39.25,0,0,39.25,0,87.67c0,17.62,5.2,34.03,14.15,47.77-8.95,13.74-14.15,30.15-14.15,47.77,0,48.42,39.25,87.67,87.67,87.67,16.06,0,31.1-4.32,44.04-11.85,12.85,7.54,27.74,11.85,43.63,11.85,48.42,0,87.67-40.08,87.67-89.52,0-17.38-4.86-33.61-13.25-47.34,8.4-13.45,13.25-29.34,13.25-46.36Z"/></g></svg>